<svg width="181" height="139" viewBox="0 0 181 139" fill="none" xmlns="http://www.w3.org/2000/svg">
<path d="M178.496 19.5391L171.356 12.3992L105.219 78.537C96.9513 86.8043 83.0473 86.8043 74.7801 78.537L8.64232 12.775L1.50244 19.9149L50.73 69.1425L1.50244 118.37L8.64232 125.51L57.8699 76.2823L67.6402 86.0527C73.6527 92.0652 81.5442 95.4473 89.8114 95.4473C98.0786 95.4473 105.97 92.0652 111.983 86.0527L121.753 76.2823L170.98 125.51L178.12 118.37L128.893 69.1425L178.496 19.5391Z" fill="#1E1E1E"/>
<path d="M164.592 138.286H16.1579C7.51489 138.286 0.375 131.147 0.375 122.504V16.5329C0.375 7.88986 7.51489 0.75 16.1579 0.75H164.592C173.235 0.75 180.375 7.88986 180.375 16.5329V122.504C180.375 131.147 173.235 138.286 164.592 138.286ZM15.7821 10.8961C12.7758 10.8961 10.5212 13.1508 10.5212 16.1571V122.128C10.5212 125.134 12.7758 127.389 15.7821 127.389H164.216C167.223 127.389 169.477 125.134 169.477 122.128V16.1571C169.477 13.1508 167.223 10.8961 164.216 10.8961H15.7821Z" fill="#1E1E1E"/>
</svg>
